<?xml version="1.0" encoding="UTF-8"?>
<svg xmlns="http://www.w3.org/2000/svg" width="305" height="343">
  <path fill="#c00" d="M139.6101 342.5239c-1.51981-.75692-3.51044-.46607-2.01611-2.29867 1.27196-1.38786 4.64338-15.32799 6.65043-26.62467.75889-4.27128.88923-8.97101 1.16203-10.44387.68552-4.10161 1.07126-8.23927 1.89611-12.31841.38411-1.76742.8623-6.25499 1.06265-9.97237l.36428-6.7589-1.58833-.55341c-1.16504-.40592-2.49933-.34969-5.0066.21099-8.09188 1.8095-12.73069 2.32683-19.76193 2.20387-6.58854-.1152-7.43289-.02025-9.46164 1.06405-2.38119 1.27264-6.4708 2.80571-7.51877 2.81854-.35019.00428-1.42876-.71524-2.39678-1.59896-2.57405-2.34982-4.649426-2.06646-8.100237 1.10595-.523863.48161-1.878075 1.15284-3.009377 1.4916-2.141395.64124-12.734708.85801-14.213456.29086-.869111-.33333-1.214089-2.88841-.389994-2.88841 1.150327 0 3.293381-2.71744 3.293381-4.17608 0-2.6555-1.563264-3.52941-5.578118-3.11828-1.898969.19445-4.356735.73108-5.461616 1.1925-2.353485.98285-5.282862.77157-8.874387-.64006-2.467138-.96969-2.545059-.96705-6.162365.20975-5.959748 1.93886-12.505242 1.37433-12.505242-1.07855 0-.55648.359987-1.7076.799983-2.55802 1.367502-2.64305.54068-3.36114-5.239025-4.55021-1.920783-.39516-2.889558-2.34881-1.994087-4.02118 1.221323-2.28083-.150466-2.79073-7.929614-2.9475-4.786768-.09646-7.443922-.38354-8.492597-.91753-3.554792-1.90298-7.187604-3.63631-10.903677-5.2005-7.351103-3.01724-9.478619-5.03979-7.576592-7.20278.792699-.90152 1.413168-.96337 6.362663-.63421 4.82384.3208 5.901133.22397 8.946302-.80409 3.009857-1.01618 3.868835-1.0972 6.57706-.6204 4.232729.7452 5.799201.33465 8.182702-2.14454l2.031219-2.11281 4.215911.35096c3.953344.89866 7.740358-1.30263 11.615778-.66393 3.339196 1.16345 8.142891-1.09302 9.813584-4.60978.718795-1.51294.71146-1.90238-.070736-3.7664-1.02815-2.45023-4.161893-5.5692-6.078659-6.05003-.744575-.18679-2.212711-.11047-3.262514.16958-1.049744.28005-2.482407.37381-3.183635.20836-.701278-.16547-3.293111-2.34468-5.75971-4.84271-4.434066-4.49065-4.484647-4.57247-4.484647-7.25497 0-2.26545-.243176-2.94265-1.473612-4.10428-1.466588-1.38454-4.445358-3.08463-7.212148-4.11623-2.280456-1.40499-3.018651-4.04013-5.213415-5.58246-2.674284-1.58514-4.26101-4.36611-6.438915-6.50185-1.369541-.84599-.44824-2.41277 2.50406-4.25851 1.685432-1.05371 3.336039-1.91583 3.667948-1.91583.81659 0 2.166096-1.59822 2.628435-3.11277.253668-.83113-.05166-2.15178-.928645-4.01687-.718635-1.52825-2.067342-4.64449-2.997156-6.92497-1.521945-3.73286-1.636189-4.38875-1.145391-6.57758.640344-2.85576.320756-4.52057-1.459573-7.60342-.844889-1.46301-1.180384-2.65244-.951518-3.37327.618161-1.94668-1.696203-8.3419-3.768371-10.41301-1.696143-1.69528-2.572268-4.47493-1.459243-4.62969.221043-.03073 1.319499-.11291 2.440938-.18261 4.074449-.2532 4.87759-3.39903 2.297218-8.99778l-1.418145-3.07707 1.086286-2.38327c1.321378-2.89912 1.352404-3.99019.183211-6.44074-.846807-1.77486-.846807-2.01056 0-3.78542 1.197002-2.50888 1.141754-4.68793-.148537-5.85499-3.613571-5.23729-5.079522-11.641596-8.590003-16.88426-1.95186-2.46315-2.014022-4.462063-.146989-4.727246 1.16067-.164853 6.571755 2.479094 6.572884 3.211601 2.43338 2.727158 5.3575 3.824698 8.945813 3.90323 3.572449.016394 3.984317.140392 5.626501 1.69407 2.223593 2.103779 3.71617 2.876074 5.558343 2.876074.960311 0 2.044558.634794 3.230039 1.891126 2.771651 2.451175 6.274764 3.654625 9.253719 5.860665 2.827235 2.22007 3.340376 2.42428 6.091359 2.42428 1.652156 0 3.382493.14516 3.845042.32259.462609.17742 1.588815 1.80425 2.502772 3.61518 1.637636 3.41505 4.480362 5.94287 6.350022 9.2066 1.321157 2.49807 4.223515 5.06544 5.726335 5.06544 1.449171 0 4.477563-3.30504 5.07494-5.53864.743126-2.77832 1.375596-3.56626 2.862818-3.56626 1.151826 0 4.594274 3.03779 4.594274 4.05424 0 .28707.740988 1.4204 1.646591 2.51851 1.39719 1.69416 1.969216 1.99657 3.776614 1.99657 2.308309 0 3.356604.84064 6.517735 5.22666 1.137997 1.57894 2.238652 2.44098 3.576257 2.80098 4.104639 1.27477 6.587179 7.71537 11.254559 5.90882 1.95084-1.04354 2.22595-3.40648 1.08211-9.29469-.58178-2.99482-1.05848-6.70557-1.05939-8.24611-.00085-1.54053-.38855-3.76751-.86144-4.94884-.82437-2.05923-.81092-2.23079.32644-4.15745 1.58454-2.68426 1.1633-6.30332-1.30518-11.21318-1.0117-2.012286-2.00057-4.782101-2.19756-6.155148-.32387-2.257685-.2377-2.559886.90126-3.159776 1.58721-.836008 2.04462-1.521233 2.05497-3.078402.00803-1.212709-2.48521-4.851475-4.48996-6.552849-.82355-.698926-1.09454-1.965359-1.43637-6.71215-.2317-3.217872-.79971-7.168518-1.26231-8.779207-1.41606-4.930784-.89327-8.586495 1.22786-8.586495 1.12637 0 3.01736 1.917512 3.51646 3.565776.19248.635621 1.42045 2.141946 2.72891 3.347393 2.11899 1.952241 2.6699 2.191731 5.04182 2.191731 1.81136 0 3.46866.428194 5.18244 1.338958 2.37518 1.087249 4.72755 1.488961 6.91471 2.945705 1.11259.883712 2.55518 1.606748 3.20575 1.606748 1.42068 0 2.9566-1.559172 2.9566-3.001315 0-.573336.72341-4.003379 1.60757-7.622317.88417-3.618927 1.60757-7.296061 1.60757-8.171388 0-1.847411 1.32834-5.306202 2.03782-5.306202 1.08725 0 3.32076-2.696511 3.32076-4.009102 0-.760283.60284-2.57137 1.33964-4.024642.7368-1.453262 1.33964-3.237153 1.33964-3.964199 0-2.074232.92489-3.995868 2.7056-5.621471 1.32076-1.205707 1.72838-2.126256 2.09761-4.737096.49123-2.958761 1.48367-5.721927 1.85171-8.707287.27719-2.639463.75897-4.036097 1.9923-5.775635.89469-1.261905 2.029-3.431007 2.52069-4.82025 1.10321-3.117056 3.06258-6.337011 4.09771-6.734017 1.0848-.41607 1.51692.466178 2.21473 4.52169.35769 2.078737 1.1869 4.40304 2.01935 5.660322 2.97535 4.493755 6.36999 13.687724 7.04286 19.074773.21211 1.69828.74292 2.954593 1.58401 3.749082 1.33383 1.259918 2.23099 4.669842 2.93292 11.147464.45462 4.195485.5862 4.443419 3.25028 6.124312l2.06824 1.30495-.29171 3.627487c-.2738 3.40484-.19032 3.775409 1.36004 6.037602 1.95504 2.852673 2.05314 4.114718.54896 7.061655-1.3596 2.663678-.87868 4.21337 1.72522 5.55921 3.02715 1.564598 8.15393-.008768 13.3587-4.099694 1.12922-.887562 1.62804-.977572 2.84814-.513929 2.79557 1.062329 3.97507.709561 5.73134-1.714143 2.16641-2.989689 6.3263-7.364256 7.00288-7.364256 2.94379 0 3.48918 3.563987 1.02054 6.668796-3.38236 4.253957-4.14928 8.106238-2.94749 14.805495.32223 1.796232.16224 2.098874-2.38281 4.507288-2.20078 2.082635-2.72822 2.921357-2.72822 4.338344.03777 2.128207 2.29553 2.603343 3.11356 4.326828.27288.574934-.9434 3.489359-2.29977 6.332931-3.18304 6.67315-3.42942 7.92804-1.94937 9.92889 2.45832 3.32335 2.47271 4.10904.16126 8.80061-4.81649 9.77604-4.92012 10.06103-4.92012 13.531 0 2.91207.19374 3.54796 1.53968 5.05356 2.06175 2.30632 4.42894 2.3356 7.334.09074 1.16127-.89735 3.10797-1.91083 4.32601-2.25214 1.62629-.45572 2.87836-1.39711 4.71321-3.54373 1.97062-2.30545 3.17062-3.16805 5.67878-4.0821 1.7491-.63742 3.72746-1.72921 4.39636-2.42617 5.35718-5.58197 6.35932-6.022 8.2724-3.63238 1.23301 1.64903 1.41058 3.65576 2.33552 5.47017.91559 1.50101 1.34652 1.74801 2.80308 1.60675 1.48313-.14384 1.90758-.55078 3.06897-2.94238.77239-1.59054 2.94921-4.35192 5.09879-6.46804 2.06306-2.03093 4.26176-4.30217 4.88601-5.04722.88859-1.06054 1.83056-1.43328 4.33883-1.71692 2.30108-.2602 3.79586-.79745 5.30496-1.9067 1.15564-.84942 3.39493-2.03575 4.9762-2.63627 1.58127-.60053 3.33182-1.58191 3.8901-2.18086.55829-.59895 1.67153-1.22285 2.47386-1.38646 1.81259-.36962 3.2187-1.14387 5.75507-3.16897 1.71522-1.36947 2.55662-1.61864 6.34263-1.87838 4.55023-.31215 5.39333-.691399 9.87626-4.442539 2.19205-1.834222 5.24095-2.000557 6.98042-.380821 1.49004 1.387475 1.47977 1.537289-.35768 5.21634-.84175 1.68538-1.69953 3.76382-1.9062 4.61874-.20667.85493-1.0892 2.22054-1.9612 3.0347-.87199.81414-1.9307 2.30615-2.35268 3.31555-.42197 1.00942-1.64067 2.88021-2.70822 4.15733-1.39468 1.66846-1.84715 2.63432-1.60763 3.43155.97862 3.25715.92806 5.11142-.19106 7.00722-1.36616 2.31428-1.41066 3.0983-.27425 4.8318.90479 1.38018.84639 2.53746-.33861 6.70857-.9519 3.35063-.43969 4.80139 2.40202 6.80339 3.01229 2.12218 3.10472 3.30307.55491 7.09014-1.03153 1.53205-1.91223 3.30361-1.95712 3.93679-.04489.63319-.13765 1.39225-.20612 1.68683-.06848.29456-.15231 1.44476-.18631 2.55598-.04788 1.56498-.54496 2.5443-2.20524 4.34455-2.40696 2.6099-2.46154 2.81128-1.34294 4.95496 1.51869 2.91049 1.15841 3.84194-3.63716 9.40315-2.09067 2.42447-2.62907 3.44153-2.62907 4.96642 0 2.33964 1.29278 4.43711 3.17591 5.1527 2.4367.92597 6.54503 3.83064 6.87133 4.85819.48239 1.51909-.18992 2.95789-1.88283 4.02942-1.8937 1.19862-7.02809 5.58477-9.94097 8.49225-1.19127 1.18906-3.84697 3.07759-5.90157 4.19674-4.85935 2.64693-5.14184 2.95854-5.66167 6.2452-.52262 3.30444-1.61099 5.12318-3.78598 6.32671-3.01468 1.71989-5.34166 4.91135-9.09495 4.68546-4.96486-1.02801-4.76224-1.0442-6.38558.51026-2.35497 2.25504-3.46049 5.56354-2.66451 7.97412.931 2.81953 2.7967 3.55745 9.85557 3.89808 4.30064.20754 7.43687.0353 11.24681-.61764 2.83464-.3022 5.90722-2.01967 7.02137 1.21484.49287 2.24285 1.76456 3.10826 4.79429 3.2626 2.98757.34583 5.78867 1.14993 8.81891 1.19092 2.02389-.02365 4.02941.27935 4.93007.74487 3.32795.96458 6.73103.78314 8.00183 4.16823.65973 1.75736-2.10325 3.45029-5.7501 4.12657-4.28103.7939-10.65156 3.80368-12.28429 5.80375-1.11336 1.36385-1.34459 1.41265-6.43029 1.35701-2.90146-.03174-6.25881-.23668-7.46075-.45542-2.93933-.53494-4.20928.63722-3.82146 3.52715.35531 2.64769-.48023 3.68255-3.2759 4.05734-2.79319.37444-3.41663 1.37387-2.95532 4.73769.30804 2.24624.20474 2.63142-.94207 3.51265-.71249.54748-2.18113.99508-3.28667 1.00167-4.40106-.32998-7.36878-3.31355-11.65362-3.81582-.44104-.0517-1.5892.88143-2.56396 1.73684-2.16535 2.19752-3.33781 1.23799-5.87189-.00958-5.93114-2.99675-11.55498-3.09597-12.27801-.21664-.33843 1.34768-.0057 2.23503 2.05309 5.47534l1.15591 1.81928-1.22636.99253c-1.65849 1.34228-2.15427 1.28047-7.07516-.88201-2.34611-1.03099-4.51005-1.87454-4.80874-1.87454-.2987 0-1.86246-.62383-3.47501-1.38631l-2.93194-1.38631-2.64033.94896-5.47463-.44879c-3.64559-1.79782-8.10309-2.25472-14.5229-1.48859-6.08032.7256-10.02771-.02067-16.02705-3.02999-3.37887-1.69486-3.93882-1.8108-8.04708-1.66606-4.14884.14616-4.45541.23901-5.07645 1.53737-.72893 1.52395-1.58951 9.46706-2.3164 21.38046-.44755 7.33501-.46193 11.84482-2.91805 22.49448-1.90136 8.24425-4.25389 17.64809-5.84773 20.67649-.86589 1.6452-1.57436 3.32838-1.57436 3.7403 0 .82769-1.78665.9415-3.48306.22189z"/>
</svg>