<?xml version='1.0' encoding='utf8'?>
<svg xmlns="http://www.w3.org/2000/svg" height="181" viewBox="7.1583329875 3.9556536875 53.416664325 47.902677625" width="201">
    <g display="inline">
        <path d="m8.2166663 16.933333h51.2999977v33.866664h-51.2999977z" fill="#80dfff" stop-color="#000000" />
        <path d="m8.2166663 16.933333h51.2999977v33.866664h-51.2999977z" fill="none" stop-color="#000000" stroke="#000000" stroke-linejoin="round" stroke-width="1.05833" />
    </g>
<path d="m59.5166630 50.7999980 -25.649997-19.27687v5.301814l-25.6499996-19.891609" display="inline" fill="none" opacity="1" stop-color="#000000" stroke="#000000" stroke-dasharray="none" stroke-linejoin="miter" stroke-miterlimit="4" stroke-width="1.05833" />
<path d="m46.8536170 37.6859530 h-10.383847m10.383847-7.638574h-7.152219m7.152219-1.247705v10.133983m-26.072152-11.128455v12.333641h14.650568l5.217957-12.333641z" display="inline" fill="none" opacity="1" stop-color="#000000" stroke="#000000" stroke-width="1.05833" />
<g display="inline" opacity="1" stroke-width=".333333">
        <path d="m39.2971710 10.4444940 a5.4305073 5.4305073 0 0 1 -5.430507 5.430507 5.4305073 5.4305073 0 0 1 -5.430507-5.430507 5.4305073 5.4305073 0 0 1 5.430507-5.430507 5.4305073 5.4305073 0 0 1 5.430507 5.430507" fill="#000000" fill-opacity="1" stop-color="#000000" />
        <path d="m54.9206880 10.4444940 a5.4305073 5.4305073 0 0 1 -5.430507 5.430507 5.4305073 5.4305073 0 0 1 -5.430507-5.430507 5.4305073 5.4305073 0 0 1 5.430507-5.430507 5.4305073 5.4305073 0 0 1 5.430507 5.430507" fill="#000000" fill-opacity="1" stop-color="#000000" />
        <path d="m23.6736540 10.4444940 a5.4305073 5.4305073 0 0 1 -5.430507 5.430507 5.4305073 5.4305073 0 0 1 -5.430507-5.430507 5.4305073 5.4305073 0 0 1 5.430507-5.430507 5.4305073 5.4305073 0 0 1 5.430507 5.430507" fill="#000000" fill-opacity="1" stop-color="#000000" />
    </g>
</svg>