<?xml version='1.0' encoding='utf8'?>
<svg xmlns="http://www.w3.org/2000/svg" height="190" viewBox="7.1583329875 1.3342422874999997 53.416664325 50.524088025000005" width="201">
    <g display="inline">
        <path d="m8.2166663 16.933333h51.2999977v33.866664h-51.2999977z" fill="#80dfff" stop-color="#000000" />
        <path d="m8.2166663 16.933333h51.2999977v33.866664h-51.2999977z" fill="none" stop-color="#000000" stroke="#000000" stroke-linejoin="round" stroke-width="1.05833" />
    </g>
<g display="inline" opacity="1" stop-color="#000000" stop-opacity="1">
        <path d="m33.7031570 36.1908120 q0 1.611719-1.199057 2.468188-1.191271.848683-3.503738.848683-2.110029 0-3.309086-.747464-1.199057-.747464-1.541644-2.26575l2.219034-.365946q.225796.872041.879827 1.269132.654031.389304 1.814158.389304 2.4059 0 2.4059-1.463784 0-.467165-.280299-.770822-.272513-.303658-.778609-.506096-.498309-.202438-1.923163-.490523-1.230201-.288085-1.712938-.459379-.482737-.17908-.872041-.412662-.389305-.241369-.661818-.576171-.272513-.334801-.428234-.786394-.147936-.451593-.147936-1.035549 0-1.487142 1.11341-2.273537 1.121196-.79418 3.254583-.79418 2.039954 0 3.059931.638458 1.027763.638459 1.323635 2.110029l-2.22682.303658q-.171294-.708534-.700748-1.066694-.521668-.35816-1.502714-.35816-2.086671 0-2.086671 1.308062 0 .428235.218011.700748.225796.272513.661817.467165.43602.186866 1.767441.474951 1.580575.334802 2.257964.622887.685176.280299 1.082266.661817.39709.373732.607314.903186.210225.521667.210225 1.206843z" />
        <path d="m37.6896320 30.1565960 v3.394733h5.613766v1.775227h-5.613766v4.025406h-2.296895v-10.970593h8.089741v1.775227z" />
    </g>
<path d="m32.2787750 2.3925756 v13.4824224h3.175779v-13.4824224z" display="inline" fill="#000000" opacity="1" stroke-linejoin="round" stroke-width=".999999" />
</svg>