<?xml version='1.0' encoding='utf8'?>
<svg xmlns="http://www.w3.org/2000/svg" height="187" viewBox="7.1583329875 2.2287756874999998 53.416664325 49.629556625" width="201">
    <g display="inline">
        <path d="m8.2166663 16.933333h51.2999977v33.866664h-51.2999977z" fill="#80dfff" stop-color="#000000" />
        <path d="m8.2166663 16.933333h51.2999977v33.866664h-51.2999977z" fill="none" stop-color="#000000" stroke="#000000" stroke-linejoin="round" stroke-width="1.05833" />
    </g>
<g display="inline" opacity="1">
        <path d="m8.2166665 16.9333330  51.2999965 33.866666" fill="none" stop-color="#000000" stroke="#000000" stroke-width="1.05833" />
        <path d="m59.5166630 16.9333330 -51.2999965 33.866666" fill="none" stop-color="#000000" stroke="#000000" stroke-width="1.05833" />
    </g>
<g display="inline" opacity="1" stroke-width=".333333">
        <path d="m21.9604130 3.2871090 -2.332029 2.15625 3.767577 4.078125-3.767577 4.072266 2.332029 2.15625 3.597657-3.890625 3.591798 3.890625 2.332032-2.15625-3.76758-4.072266 3.76758-4.078125-2.332032-2.15625-3.591798 3.890625z" fill="#000000" stroke-linejoin="round" stroke-width=".999999" />
        <path d="m38.5776020 3.2871090 -2.332032 2.15625 3.76758 4.078125-3.76758 4.072266 2.332032 2.15625 3.597657-3.890625 3.597654 3.890625 2.332032-2.15625-3.767577-4.072266 3.767577-4.078125-2.332032-2.15625-3.597654 3.890625z" fill="#000000" stroke-linejoin="round" stroke-width=".999999" />
    </g>
</svg>