<?xml version='1.0' encoding='utf8'?>
<svg xmlns="http://www.w3.org/2000/svg" height="181" viewBox="7.1583329875 3.9556536875 53.416664325 47.902676625000005" width="201">
    <g display="inline">
        <path d="m8.2166663 16.933333h51.2999977v33.866664h-51.2999977z" fill="#80dfff" stop-color="#000000" />
        <path d="m8.2166663 16.933333h51.2999977v33.866664h-51.2999977z" fill="none" stop-color="#000000" stroke="#000000" stroke-linejoin="round" stroke-width="1.05833" />
    </g>
<path clip-rule="nonzero" color-interpolation="sRGB" color-interpolation-filters="linearRGB" color-rendering="auto" d="m33.8671822 27.0505446 -2.97242702505 2.97294560838.74775746975.74775746975 1.69550289531-1.69498695781v5.92883617531c-1.28955533792.24931951769-2.27169395055 1.389118045-2.27169395055 2.7486715487 0 1.54045441809 1.26040619245 2.80086061055 2.80086061055 2.80086061055s2.80086325638-1.26040619245 2.80086325638-2.80086061055c0-1.35955350371-.98213861263-2.49935203101-2.27169659638-2.7486715487v-5.92883617531l1.69550554114 1.69498695781.74775746975-.74775746975zm0 8.96120984544c.96849140447 0 1.74201399889.77352259442 1.74201399889 1.74201399889 0 .96848875863-.77352259442 1.74252729055-1.74201399889 1.74252729055s-1.74201135305-.77403853191-1.74201135305-1.74252729055c0-.96849140447.77351994859-1.74201399889 1.74201135305-1.74201399889z" display="inline" fill="#000000" fill-opacity="1" fill-rule="nonzero" image-rendering="auto" opacity="1" shape-rendering="auto" stop-color="#000000" stop-opacity="1" text-rendering="auto" visibility="visible" />
<g display="inline" opacity="1" stroke-width=".333333">
        <path d="m39.2971710 10.4444940 a5.4305073 5.4305073 0 0 1 -5.430507 5.430507 5.4305073 5.4305073 0 0 1 -5.430507-5.430507 5.4305073 5.4305073 0 0 1 5.430507-5.430507 5.4305073 5.4305073 0 0 1 5.430507 5.430507" fill="#000000" fill-opacity="1" stop-color="#000000" />
        <path d="m54.9206880 10.4444940 a5.4305073 5.4305073 0 0 1 -5.430507 5.430507 5.4305073 5.4305073 0 0 1 -5.430507-5.430507 5.4305073 5.4305073 0 0 1 5.430507-5.430507 5.4305073 5.4305073 0 0 1 5.430507 5.430507" fill="#000000" fill-opacity="1" stop-color="#000000" />
        <path d="m23.6736540 10.4444940 a5.4305073 5.4305073 0 0 1 -5.430507 5.430507 5.4305073 5.4305073 0 0 1 -5.430507-5.430507 5.4305073 5.4305073 0 0 1 5.430507-5.430507 5.4305073 5.4305073 0 0 1 5.430507 5.430507" fill="#000000" fill-opacity="1" stop-color="#000000" />
    </g>
</svg>